HIERARCHY
ROOT hip
{
	OFFSET 0.000000 0.000000 0.000000 
	CHANNELS 6 Xposition Yposition Zposition Xrotation Zrotation Yrotation
	JOINT abdomen
	{
		OFFSET 0.000000 3.402643 0.000000 
		CHANNELS 3 Xrotation Zrotation Yrotation
		JOINT chest
		{
			OFFSET 0.000000 8.438565 -0.680529 
			CHANNELS 3 Xrotation Zrotation Yrotation
			JOINT neck
			{
				OFFSET 0.000000 10.207942 -0.272212 
				CHANNELS 3 Xrotation Zrotation Yrotation
				JOINT head
				{
					OFFSET 0.000000 3.130431 0.000000 
					CHANNELS 3 Xrotation Zrotation Yrotation
					End Site
					{
						OFFSET 0.000000 3.130435 0.000000 
					}
				}
			}
			JOINT lCollar
			{
				OFFSET 3.470700 6.669187 -0.816635 
				CHANNELS 3 Yrotation Zrotation Xrotation
				JOINT lShldr
				{
					OFFSET 3.198488 0.000000 0.000000 
					CHANNELS 3 Zrotation Yrotation Xrotation
					JOINT lForeArm
					{
						OFFSET 10.139888 0.000000 0.000000 
						CHANNELS 3 Yrotation Zrotation Xrotation
						JOINT lHand
						{
							OFFSET 8.370511 0.000000 0.000000 
							CHANNELS 3 Zrotation Yrotation Xrotation
							End Site
							{
								OFFSET 4.083176 0.000000 0.000000 
							}
						}
					}
				}
			}
			JOINT rCollar
			{
				OFFSET -3.470700 6.669187 -0.816635 
				CHANNELS 3 Yrotation Zrotation Xrotation
				JOINT rShldr
				{
					OFFSET -3.198488 0.000000 0.000000 
					CHANNELS 3 Zrotation Yrotation Xrotation
					JOINT rForeArm
					{
						OFFSET -10.139888 0.000000 0.000000 
						CHANNELS 3 Yrotation Zrotation Xrotation
						JOINT rHand
						{
							OFFSET -8.370511 0.000000 0.000000 
							CHANNELS 3 Zrotation Yrotation Xrotation
							End Site
							{
								OFFSET -4.083176 0.000000 0.000000 
							}
						}
					}
				}
			}
		}
	}
	JOINT lThigh
	{
		OFFSET 5.308129 -1.633274 1.361059 
		CHANNELS 3 Xrotation Zrotation Yrotation
		JOINT lShin
		{
			OFFSET -2.041588 -20.007561 0.000000 
			CHANNELS 3 Xrotation Zrotation Yrotation
			JOINT lFoot
			{
				OFFSET 0.000000 -19.190928 -1.224953 
				CHANNELS 3 Xrotation Yrotation Zrotation
				End Site
				{
					OFFSET 0.000000 -2.449906 4.627600 
				}
			}
		}
	}
	JOINT rThigh
	{
		OFFSET -5.308129 -1.633274 1.361059 
		CHANNELS 3 Xrotation Zrotation Yrotation
		JOINT rShin
		{
			OFFSET 2.041588 -20.007561 0.000000 
			CHANNELS 3 Xrotation Zrotation Yrotation
			JOINT rFoot
			{
				OFFSET 0.000000 -19.190928 -1.224953 
				CHANNELS 3 Xrotation Yrotation Zrotation
				End Site
				{
					OFFSET 0.000000 -2.449906 4.627600 
				}
			}
		}
	}
}
MOTION
Frames: 8
Frame Time: 0.016667
-24.018587 43.267662 215.506088 2.451310 0.604915 55.035801 -13.743900 -1.754830 3.164280 24.416201 4.491790 1.397070 47.918800 -6.648730 3.504060 -8.603520 0.000000 0.000000 2.000000 -2.000000 0.000000 -2.586370 -48.018299 154.330002 42.832500 -0.315109 0.093005 5.534000 0.671455 -157.102997 -2.000000 2.000000 0.000000 6.140450 55.111000 153.037003 -40.088299 0.319444 0.088050 5.096780 4.357980 -154.886993 9.746670 -9.731436 -8.047314 14.157409 4.589498 0.844063 -13.844242 0.858724 -3.370444 -16.603058 -4.497736 -4.649261 8.276052 -3.339920 -0.618306 7.982559 15.176868 -4.032400 
-23.432407 43.131229 215.862198 3.115840 1.131140 56.741402 -13.533200 -1.820470 2.930150 24.975700 4.673630 1.298660 48.175098 -6.484520 4.040330 -8.603520 0.000000 0.000000 2.000000 -2.000000 0.000000 -2.770920 -47.852901 154.065994 42.959400 -0.314903 0.093226 5.534000 0.671455 -157.102997 -2.000000 2.000000 0.000000 5.622940 55.346699 152.423004 -40.029701 0.319534 0.087943 5.096780 4.357980 -154.886993 10.284274 -10.356211 -8.138746 15.013236 4.709418 0.888951 -14.181643 -0.943967 -3.951343 -17.108335 -4.977567 -3.767484 8.245158 -3.206156 -0.621185 8.608987 15.978970 -4.282963 
-22.830160 42.987534 216.284607 3.272570 1.472210 58.306999 -13.641100 -1.617040 2.756470 24.888901 4.898140 1.249830 48.288502 -7.348040 3.819740 -8.603520 0.000000 0.000000 2.000000 -2.000000 0.000000 -3.241720 -48.380001 154.173996 42.363701 -0.315867 0.092181 5.533030 0.633591 -156.712997 -2.000000 2.000000 0.000000 5.789520 55.365700 152.656998 -39.941799 0.319669 0.087782 5.101990 4.355520 -154.817993 10.953631 -10.287040 -7.994777 15.713592 4.958777 0.891980 -14.357613 -2.360585 -4.432250 -17.349470 -4.941475 -3.348275 8.452714 -3.018536 -0.667024 10.873234 16.154783 -4.908324 
-22.222073 42.845913 216.714859 3.497750 1.764290 59.903000 -13.785900 -1.390530 2.727490 24.723301 5.064770 1.257450 48.847401 -7.052320 4.002510 -8.603520 0.000000 0.000000 2.000000 -2.000000 0.000000 -3.525600 -48.163101 155.128006 42.803200 -0.315157 0.092953 5.531960 0.699968 -157.395996 -2.000000 2.000000 0.000000 5.943090 54.661400 153.203003 -40.293400 0.319128 0.088423 5.086480 4.384400 -155.130997 11.757373 -10.441609 -9.054498 16.206898 5.283991 0.934686 -14.475720 -2.688202 -4.775268 -17.222420 -4.749035 -1.490976 8.394299 -2.833400 -0.696499 12.683132 14.607480 -4.998900 
-21.526026 42.696503 217.147354 4.173850 2.483640 61.558399 -13.892800 -1.379240 2.759070 24.655701 5.221060 1.272310 48.420799 -6.850630 4.116370 -8.603520 0.000000 0.000000 2.000000 -2.000000 0.000000 -4.094290 -48.621201 155.529999 42.666401 -0.315378 0.092714 5.533320 0.671741 -157.162003 -2.000000 2.000000 0.000000 6.215040 54.279999 153.455994 -40.224998 0.319234 0.088299 5.086800 4.373460 -155.072006 12.764226 -11.078561 -9.550214 16.903097 5.580829 0.959398 -14.440999 -4.475004 -5.393778 -17.266649 -5.446239 -1.157519 9.646727 -2.935978 -0.774184 14.322181 14.191440 -5.279032 
-20.803017 42.541901 217.574249 5.095760 3.180760 63.330502 -13.954800 -1.385070 2.523040 24.806200 5.697290 1.165640 48.641998 -7.510620 3.735600 -8.603520 0.000000 0.000000 2.000000 -2.000000 0.000000 -4.503600 -48.347599 155.636993 42.305099 -0.315961 0.092078 5.540360 0.624016 -156.585999 -2.000000 2.000000 0.000000 6.089290 54.494801 153.514999 -40.195702 0.319279 0.088246 5.089470 4.383000 -155.091003 13.550680 -11.678288 -9.646416 17.612392 5.681152 1.000671 -14.329771 -6.459474 -5.925221 -17.180058 -6.356258 -0.587995 11.346620 -3.080230 -0.862032 9.494684 12.474792 -3.674310 
-20.101353 42.400017 218.012360 5.880190 3.506890 65.459099 -14.214200 -1.454290 2.120360 24.680300 5.922240 0.964054 48.980000 -7.879930 3.820140 -8.603520 0.000000 0.000000 2.000000 -2.000000 0.000000 -5.079280 -48.063499 156.007004 42.314899 -0.315945 0.092095 5.541840 0.595686 -156.274002 -2.000000 2.000000 0.000000 6.520660 54.640202 154.022995 -40.283600 0.319143 0.088406 5.085730 4.384750 -155.141006 14.110252 -11.927910 -10.125498 18.347277 5.861168 1.044700 -13.743278 -7.716962 -6.231566 -16.968561 -6.907264 0.321580 13.590031 -3.198571 -1.024228 2.995696 9.745160 -2.017456 
-19.375422 42.271366 218.444855 6.261760 3.504410 67.367203 -14.460300 -1.373540 1.868220 24.610901 5.835070 0.843385 48.973701 -6.980310 4.632720 -8.603520 0.000000 0.000000 2.000000 -2.000000 0.000000 -5.441180 -48.111801 156.281006 42.099998 -0.316289 0.091716 5.541530 0.595818 -156.302994 -2.000000 2.000000 0.000000 7.195210 54.757198 154.082001 -40.117599 0.319399 0.088103 5.101990 4.355520 -154.817993 14.567612 -11.654870 -10.619595 19.062374 6.004103 1.075450 -12.921362 -8.816749 -6.385106 -16.645916 -6.911684 1.146120 14.918488 -3.182946 -1.115926 0.450608 7.095007 -1.511417 
